<svg id="svg" version="1.1" width="1024" height="1024" xmlns="http://www.w3.org/2000/svg" xmlns:xlink="http://www.w3.org/1999/xlink" ><g id="svgg"><path id="path0" d="M149.698 33.206 C 136.095 35.220,133.528 54.013,146.009 60.217 L 147.852 61.133 171.582 61.242 L 195.313 61.351 195.313 197.072 L 195.313 332.792 168.457 332.900 L 141.602 333.008 139.345 334.151 C 126.987 340.409,129.742 358.595,143.403 360.932 C 145.156 361.232,164.423 361.326,208.203 361.246 L 270.508 361.133 272.735 360.233 C 284.174 355.611,284.642 339.269,273.484 334.037 L 271.289 333.008 247.559 332.899 L 223.828 332.789 223.828 197.069 L 223.828 61.349 250.879 61.241 L 277.930 61.133 280.210 59.979 C 291.030 54.501,290.347 38.472,279.102 33.950 L 276.758 33.008 214.258 32.954 C 179.883 32.925,150.831 33.038,149.698 33.206 " stroke="none" fill="#000000" fill-rule="evenodd"></path></g></svg>