<svg id="svg" version="1.1" width="600" height="600" xmlns="http://www.w3.org/2000/svg" xmlns:xlink="http://www.w3.org/1999/xlink" ><g id="svgg"><path id="path0" d="M64.667 78.402 C 44.040 83.921,36.988 110.029,51.801 126.030 C 64.265 139.492,87.701 137.017,97.138 121.241 C 110.519 98.874,89.886 71.655,64.667 78.402 M134.000 106.000 L 134.000 126.667 247.000 126.667 L 360.000 126.667 360.000 106.000 L 360.000 85.333 247.000 85.333 L 134.000 85.333 134.000 106.000 M66.217 176.696 C 44.238 181.042,36.268 209.970,52.724 225.668 C 68.451 240.668,94.893 233.273,100.305 212.360 C 105.753 191.307,87.724 172.444,66.217 176.696 M134.000 204.667 L 134.000 225.333 247.000 225.333 L 360.000 225.333 360.000 204.667 L 360.000 184.000 247.000 184.000 L 134.000 184.000 134.000 204.667 M64.667 276.402 C 43.254 282.131,36.673 310.023,53.105 325.396 C 65.998 337.459,88.076 334.373,97.142 319.241 C 110.585 296.805,89.983 269.629,64.667 276.402 M134.000 304.000 L 134.000 324.667 247.000 324.667 L 360.000 324.667 360.000 304.000 L 360.000 283.333 247.000 283.333 L 134.000 283.333 134.000 304.000 " stroke="none" fill="#000000" fill-rule="evenodd"></path></g></svg>