<svg id="svg" version="1.1" width="1024" height="1024" xmlns="http://www.w3.org/2000/svg" xmlns:xlink="http://www.w3.org/1999/xlink" ><g id="svgg"><path id="path0" d="M0.391 200.000 L 0.391 399.609 200.000 399.609 L 399.609 399.609 399.609 200.000 L 399.609 0.391 200.000 0.391 L 0.391 0.391 0.391 200.000 M393.750 200.000 L 393.750 393.750 200.000 393.750 L 6.250 393.750 6.250 200.000 L 6.250 6.250 200.000 6.250 L 393.750 6.250 393.750 200.000 M46.484 203.118 L 46.484 262.891 53.906 262.891 L 61.328 262.891 61.328 222.418 C 61.328 199.353,61.145 177.835,60.903 172.388 C 60.669 167.131,60.537 162.771,60.610 162.700 C 60.683 162.629,74.893 185.138,92.188 212.719 L 123.633 262.867 133.691 262.879 L 143.750 262.891 143.750 203.125 L 143.750 143.359 136.328 143.359 L 128.906 143.359 128.915 188.184 C 128.919 212.837,129.087 235.550,129.288 238.657 C 129.488 241.764,129.594 244.365,129.522 244.436 C 129.451 244.507,115.070 221.838,97.564 194.060 L 65.736 143.555 56.110 143.450 L 46.484 143.346 46.484 203.118 M253.889 144.622 C 253.671 145.109,242.705 171.963,229.521 204.297 L 205.549 263.086 213.800 263.192 C 218.338 263.250,222.235 263.227,222.461 263.140 C 222.686 263.054,225.940 255.140,229.691 245.554 L 236.513 228.125 263.471 228.134 L 290.430 228.144 297.240 245.712 L 304.051 263.281 312.569 263.281 L 321.087 263.281 320.494 261.816 C 320.168 261.011,309.388 234.160,296.539 202.148 L 273.178 143.945 263.732 143.841 L 254.286 143.736 253.889 144.622 M277.233 194.238 L 285.429 215.234 263.613 215.234 C 251.357 215.234,241.797 215.084,241.797 214.892 C 241.797 214.703,244.803 206.837,248.476 197.411 C 255.957 178.215,259.263 169.362,261.719 161.946 L 263.390 156.900 266.213 165.071 C 267.765 169.565,272.724 182.690,277.233 194.238 M173.047 253.516 L 173.047 262.891 181.445 262.891 L 189.844 262.891 189.844 253.516 L 189.844 244.141 181.445 244.141 L 173.047 244.141 173.047 253.516 M336.719 253.516 L 336.719 262.891 345.117 262.891 L 353.516 262.891 353.516 253.516 L 353.516 244.141 345.117 244.141 L 336.719 244.141 336.719 253.516 " stroke="none" fill="#000000" fill-rule="evenodd"></path></g></svg>