<svg id="svg" version="1.1" width="1296" height="1465" xmlns="http://www.w3.org/2000/svg" xmlns:xlink="http://www.w3.org/1999/xlink" ><g id="svgg"><path id="path0" d="M388.426 0.320 C 333.291 2.971,287.704 45.587,281.945 99.862 C 281.547 103.609,281.488 126.712,281.485 278.164 L 281.481 452.160 340.741 452.160 L 400.000 452.160 400.000 226.080 L 400.000 0.000 396.528 0.049 C 394.618 0.075,390.972 0.197,388.426 0.320 M241.675 209.130 C 192.104 214.530,150.975 252.271,142.312 300.309 C 140.703 309.232,140.747 306.955,140.744 382.176 L 140.741 452.160 200.000 452.160 L 259.259 452.160 259.259 330.401 L 259.259 208.642 252.392 208.676 C 248.615 208.695,243.792 208.899,241.675 209.130 M107.253 334.108 C 50.889 340.650,0.049 394.964,0.003 448.688 L 0.000 452.160 59.259 452.160 L 118.519 452.160 118.519 392.901 L 118.519 333.642 114.583 333.678 C 112.419 333.698,109.120 333.891,107.253 334.108 " stroke="none" fill="#000000" fill-rule="evenodd"></path></g></svg>