<svg id="svg" version="1.1" width="840" height="858" xmlns="http://www.w3.org/2000/svg" xmlns:xlink="http://www.w3.org/1999/xlink" ><g id="svgg"><path id="path0" d="M154.881 0.712 C 154.554 1.084,154.286 1.719,154.286 2.123 C 154.286 2.527,154.071 2.857,153.810 2.857 C 153.548 2.857,153.333 3.286,153.333 3.810 C 153.333 4.333,153.119 4.762,152.857 4.762 C 152.595 4.762,152.381 5.405,152.381 6.190 C 152.381 6.976,152.167 7.619,151.905 7.619 C 151.643 7.619,151.429 8.262,151.429 9.048 C 151.429 9.833,151.214 10.476,150.952 10.476 C 150.690 10.476,150.476 10.905,150.476 11.429 C 150.476 11.952,150.262 12.381,150.000 12.381 C 149.738 12.381,149.524 13.024,149.524 13.810 C 149.524 14.595,149.310 15.238,149.048 15.238 C 148.786 15.238,148.571 15.881,148.571 16.667 C 148.571 17.452,148.357 18.095,148.095 18.095 C 147.833 18.095,147.619 18.524,147.619 19.048 C 147.619 19.571,147.405 20.000,147.143 20.000 C 146.881 20.000,146.667 20.643,146.667 21.429 C 146.667 22.214,146.452 22.857,146.190 22.857 C 145.929 22.857,145.714 23.500,145.714 24.286 C 145.714 25.071,145.500 25.714,145.238 25.714 C 144.976 25.714,144.762 26.143,144.762 26.667 C 144.762 27.190,144.548 27.619,144.286 27.619 C 144.024 27.619,143.810 28.262,143.810 29.048 C 143.810 29.833,143.595 30.476,143.333 30.476 C 143.071 30.476,142.857 31.119,142.857 31.905 C 142.857 32.690,142.643 33.333,142.381 33.333 C 142.119 33.333,141.905 33.762,141.905 34.286 C 141.905 34.810,141.690 35.238,141.429 35.238 C 141.167 35.238,140.952 35.881,140.952 36.667 C 140.952 37.452,140.738 38.095,140.476 38.095 C 140.214 38.095,140.000 38.738,140.000 39.524 C 140.000 40.310,139.786 40.952,139.524 40.952 C 139.262 40.952,139.048 41.381,139.048 41.905 C 139.048 42.429,138.833 42.857,138.571 42.857 C 138.310 42.857,138.095 43.500,138.095 44.286 C 138.095 45.071,137.881 45.714,137.619 45.714 C 137.357 45.714,137.143 46.143,137.143 46.667 C 137.143 47.190,136.929 47.619,136.667 47.619 C 136.405 47.619,136.190 48.262,136.190 49.048 C 136.190 49.833,135.976 50.476,135.714 50.476 C 135.452 50.476,135.238 51.119,135.238 51.905 C 135.238 52.690,135.024 53.333,134.762 53.333 C 134.500 53.333,134.286 53.762,134.286 54.286 C 134.286 54.810,134.071 55.238,133.810 55.238 C 133.548 55.238,133.333 55.881,133.333 56.667 C 133.333 57.452,133.119 58.095,132.857 58.095 C 132.595 58.095,132.381 58.738,132.381 59.524 C 132.381 60.310,132.167 60.952,131.905 60.952 C 131.643 60.952,131.429 61.381,131.429 61.905 C 131.429 62.429,131.214 62.857,130.952 62.857 C 130.690 62.857,130.476 63.500,130.476 64.286 C 130.476 65.071,130.262 65.714,130.000 65.714 C 129.738 65.714,129.524 66.357,129.524 67.143 C 129.524 67.929,129.310 68.571,129.048 68.571 C 128.786 68.571,128.571 69.000,128.571 69.524 C 128.571 70.048,128.357 70.476,128.095 70.476 C 127.833 70.476,127.619 71.119,127.619 71.905 C 127.619 72.690,127.405 73.333,127.143 73.333 C 126.881 73.333,126.667 73.976,126.667 74.762 C 126.667 75.548,126.452 76.190,126.190 76.190 C 125.929 76.190,125.714 76.619,125.714 77.143 C 125.714 77.667,125.500 78.095,125.238 78.095 C 124.976 78.095,124.762 78.738,124.762 79.524 C 124.762 80.310,124.548 80.952,124.286 80.952 C 124.024 80.952,123.810 81.381,123.810 81.905 C 123.810 82.429,123.595 82.857,123.333 82.857 C 123.071 82.857,122.857 83.500,122.857 84.286 C 122.857 85.071,122.643 85.714,122.381 85.714 C 122.119 85.714,121.905 86.357,121.905 87.143 C 121.905 87.929,121.690 88.571,121.429 88.571 C 121.167 88.571,120.952 89.000,120.952 89.524 C 120.952 90.048,120.738 90.476,120.476 90.476 C 120.214 90.476,120.000 91.119,120.000 91.905 C 120.000 92.690,119.786 93.333,119.524 93.333 C 119.262 93.333,119.048 93.976,119.048 94.762 C 119.048 95.548,118.833 96.190,118.571 96.190 C 118.310 96.190,118.095 96.619,118.095 97.143 C 118.095 97.667,117.881 98.095,117.619 98.095 C 117.357 98.095,117.143 98.738,117.143 99.524 C 117.143 100.310,116.929 100.952,116.667 100.952 C 116.405 100.952,116.190 101.595,116.190 102.381 C 116.190 103.167,115.976 103.810,115.714 103.810 C 115.452 103.810,115.238 104.238,115.238 104.762 C 115.238 105.286,115.024 105.714,114.762 105.714 C 114.500 105.714,114.286 106.357,114.286 107.143 C 114.286 107.929,114.071 108.571,113.810 108.571 C 113.548 108.571,113.333 109.214,113.333 110.000 C 113.333 110.786,113.119 111.429,112.857 111.429 C 112.595 111.429,112.381 111.857,112.381 112.381 C 112.381 112.905,112.167 113.333,111.905 113.333 C 111.643 113.333,111.429 113.976,111.429 114.762 C 111.429 115.548,111.214 116.190,110.952 116.190 C 110.690 116.190,110.476 116.619,110.476 117.143 C 110.476 117.667,110.262 118.095,110.000 118.095 C 109.738 118.095,109.524 118.738,109.524 119.524 C 109.524 120.310,109.310 120.952,109.048 120.952 C 108.786 120.952,108.571 121.595,108.571 122.381 C 108.571 123.167,108.357 123.810,108.095 123.810 C 107.833 123.810,107.619 124.238,107.619 124.762 C 107.619 125.286,107.405 125.714,107.143 125.714 C 106.881 125.714,106.667 126.357,106.667 127.143 C 106.667 127.929,106.452 128.571,106.190 128.571 C 105.929 128.571,105.714 129.214,105.714 130.000 C 105.714 130.786,105.500 131.429,105.238 131.429 C 104.976 131.429,104.762 131.857,104.762 132.381 C 104.762 132.905,104.548 133.333,104.286 133.333 C 104.024 133.333,103.810 133.976,103.810 134.762 C 103.810 135.548,103.595 136.190,103.333 136.190 C 103.071 136.190,102.857 136.833,102.857 137.619 C 102.857 138.405,102.643 139.048,102.381 139.048 C 102.119 139.048,101.905 139.476,101.905 140.000 C 101.905 140.524,101.690 140.952,101.429 140.952 C 101.167 140.952,100.952 141.595,100.952 142.381 C 100.952 143.167,100.738 143.810,100.476 143.810 C 100.214 143.810,100.000 144.452,100.000 145.238 C 100.000 146.024,99.786 146.667,99.524 146.667 C 99.262 146.667,99.048 147.095,99.048 147.619 C 99.048 148.143,98.833 148.571,98.571 148.571 C 98.310 148.571,98.095 149.214,98.095 150.000 C 98.095 150.786,97.881 151.429,97.619 151.429 C 97.357 151.429,97.143 151.857,97.143 152.381 C 97.143 152.905,96.929 153.333,96.667 153.333 C 96.405 153.333,96.190 153.976,96.190 154.762 C 96.190 155.548,95.976 156.190,95.714 156.190 C 95.452 156.190,95.238 156.833,95.238 157.619 C 95.238 158.405,95.024 159.048,94.762 159.048 C 94.500 159.048,94.286 159.476,94.286 160.000 C 94.286 160.524,94.071 160.952,93.810 160.952 C 93.548 160.952,93.333 161.595,93.333 162.381 C 93.333 163.167,93.119 163.810,92.857 163.810 C 92.595 163.810,92.381 164.452,92.381 165.238 C 92.381 166.024,92.167 166.667,91.905 166.667 C 91.643 166.667,91.429 167.095,91.429 167.619 C 91.429 168.143,91.214 168.571,90.952 168.571 C 90.690 168.571,90.476 169.214,90.476 170.000 C 90.476 170.786,90.262 171.429,90.000 171.429 C 89.738 171.429,89.524 172.071,89.524 172.857 C 89.524 173.643,89.310 174.286,89.048 174.286 C 88.786 174.286,88.571 174.714,88.571 175.238 C 88.571 175.762,88.357 176.190,88.095 176.190 C 87.833 176.190,87.619 176.833,87.619 177.619 C 87.619 178.405,87.405 179.048,87.143 179.048 C 86.881 179.048,86.667 179.690,86.667 180.476 C 86.667 181.262,86.452 181.905,86.190 181.905 C 85.929 181.905,85.714 182.333,85.714 182.857 C 85.714 183.381,85.500 183.810,85.238 183.810 C 84.976 183.810,84.762 184.452,84.762 185.238 C 84.762 186.024,84.548 186.667,84.286 186.667 C 84.024 186.667,83.810 187.095,83.810 187.619 C 83.810 188.143,83.595 188.571,83.333 188.571 C 83.071 188.571,82.857 189.214,82.857 190.000 C 82.857 190.786,82.643 191.429,82.381 191.429 C 82.119 191.429,81.905 192.071,81.905 192.857 C 81.905 193.643,81.690 194.286,81.429 194.286 C 81.167 194.286,80.952 194.714,80.952 195.238 C 80.952 195.762,80.738 196.190,80.476 196.190 C 80.214 196.190,80.000 196.833,80.000 197.619 C 80.000 198.405,79.786 199.048,79.524 199.048 C 79.262 199.048,79.048 199.690,79.048 200.476 C 79.048 201.262,78.833 201.905,78.571 201.905 C 78.310 201.905,78.095 202.333,78.095 202.857 C 78.095 203.381,77.881 203.810,77.619 203.810 C 77.357 203.810,77.143 204.452,77.143 205.238 C 77.143 206.024,76.929 206.667,76.667 206.667 C 76.405 206.667,76.190 207.310,76.190 208.095 C 76.190 208.881,75.976 209.524,75.714 209.524 C 75.452 209.524,75.238 209.952,75.238 210.476 C 75.238 211.000,75.024 211.429,74.762 211.429 C 74.500 211.429,74.286 212.071,74.286 212.857 C 74.286 213.643,74.071 214.286,73.810 214.286 C 73.548 214.286,73.333 214.929,73.333 215.714 C 73.333 216.500,73.119 217.143,72.857 217.143 C 72.595 217.143,72.381 217.571,72.381 218.095 C 72.381 218.619,72.167 219.048,71.905 219.048 C 71.643 219.048,71.429 219.690,71.429 220.476 C 71.429 221.262,71.214 221.905,70.952 221.905 C 70.690 221.905,70.476 222.333,70.476 222.857 C 70.476 223.381,70.262 223.810,70.000 223.810 C 69.738 223.810,69.524 224.452,69.524 225.238 C 69.524 226.024,69.310 226.667,69.048 226.667 C 68.786 226.667,68.571 227.310,68.571 228.095 C 68.571 228.881,68.357 229.524,68.095 229.524 C 67.833 229.524,67.619 229.952,67.619 230.476 C 67.619 231.000,67.405 231.429,67.143 231.429 C 66.881 231.429,66.667 232.071,66.667 232.857 C 66.667 233.643,66.452 234.286,66.190 234.286 C 65.929 234.286,65.714 234.929,65.714 235.714 C 65.714 236.500,65.500 237.143,65.238 237.143 C 64.976 237.143,64.762 237.571,64.762 238.095 C 64.762 238.619,64.548 239.048,64.286 239.048 C 64.024 239.048,63.810 239.690,63.810 240.476 C 63.810 241.262,63.595 241.905,63.333 241.905 C 63.071 241.905,62.857 242.548,62.857 243.333 C 62.857 244.119,62.643 244.762,62.381 244.762 C 62.119 244.762,61.905 245.190,61.905 245.714 C 61.905 246.238,61.690 246.667,61.429 246.667 C 61.167 246.667,60.952 247.310,60.952 248.095 C 60.952 248.881,60.738 249.524,60.476 249.524 C 60.214 249.524,60.000 250.167,60.000 250.952 C 60.000 251.738,59.786 252.381,59.524 252.381 C 59.262 252.381,59.048 252.810,59.048 253.333 C 59.048 253.857,58.833 254.286,58.571 254.286 C 58.310 254.286,58.095 254.929,58.095 255.714 C 58.095 256.500,57.881 257.143,57.619 257.143 C 57.357 257.143,57.143 257.571,57.143 258.095 C 57.143 258.619,56.929 259.048,56.667 259.048 C 56.405 259.048,56.190 259.690,56.190 260.476 C 56.190 261.262,55.976 261.905,55.714 261.905 C 55.452 261.905,55.238 262.548,55.238 263.333 C 55.238 264.119,55.024 264.762,54.762 264.762 C 54.500 264.762,54.286 265.190,54.286 265.714 C 54.286 266.238,54.071 266.667,53.810 266.667 C 53.548 266.667,53.333 267.310,53.333 268.095 C 53.333 268.881,53.119 269.524,52.857 269.524 C 52.595 269.524,52.381 270.167,52.381 270.952 C 52.381 271.738,52.167 272.381,51.905 272.381 C 51.643 272.381,51.429 272.810,51.429 273.333 C 51.429 273.857,51.214 274.286,50.952 274.286 C 50.690 274.286,50.476 274.929,50.476 275.714 C 50.476 276.500,50.262 277.143,50.000 277.143 C 49.738 277.143,49.524 277.786,49.524 278.571 C 49.524 279.357,49.310 280.000,49.048 280.000 C 48.786 280.000,48.571 280.429,48.571 280.952 C 48.571 281.476,48.357 281.905,48.095 281.905 C 47.833 281.905,47.619 282.548,47.619 283.333 C 47.619 284.119,47.405 284.762,47.143 284.762 C 46.881 284.762,46.667 285.405,46.667 286.190 C 46.667 286.976,46.452 287.619,46.190 287.619 C 45.929 287.619,45.714 288.048,45.714 288.571 C 45.714 289.095,45.500 289.524,45.238 289.524 C 44.976 289.524,44.762 290.167,44.762 290.952 C 44.762 291.738,44.548 292.381,44.286 292.381 C 44.024 292.381,43.810 292.810,43.810 293.333 C 43.810 293.857,43.595 294.286,43.333 294.286 C 43.071 294.286,42.857 294.929,42.857 295.714 C 42.857 296.500,42.643 297.143,42.381 297.143 C 42.119 297.143,41.905 297.786,41.905 298.571 C 41.905 299.357,41.690 300.000,41.429 300.000 C 41.167 300.000,40.952 300.429,40.952 300.952 C 40.952 301.476,40.738 301.905,40.476 301.905 C 40.214 301.905,40.000 302.548,40.000 303.333 C 40.000 304.119,39.786 304.762,39.524 304.762 C 39.262 304.762,39.048 305.405,39.048 306.190 C 39.048 306.976,38.833 307.619,38.571 307.619 C 38.310 307.619,38.095 308.048,38.095 308.571 C 38.095 309.095,37.881 309.524,37.619 309.524 C 37.357 309.524,37.143 310.167,37.143 310.952 C 37.143 311.738,36.929 312.381,36.667 312.381 C 36.405 312.381,36.190 313.024,36.190 313.810 C 36.190 314.595,35.976 315.238,35.714 315.238 C 35.452 315.238,35.238 315.667,35.238 316.190 C 35.238 316.714,35.024 317.143,34.762 317.143 C 34.500 317.143,34.286 317.786,34.286 318.571 C 34.286 319.357,34.071 320.000,33.810 320.000 C 33.548 320.000,33.333 320.643,33.333 321.429 C 33.333 322.214,33.119 322.857,32.857 322.857 C 32.595 322.857,32.381 323.286,32.381 323.810 C 32.381 324.333,32.167 324.762,31.905 324.762 C 31.643 324.762,31.429 325.405,31.429 326.190 C 31.429 326.976,31.214 327.619,30.952 327.619 C 30.690 327.619,30.476 328.048,30.476 328.571 C 30.476 329.095,30.262 329.524,30.000 329.524 C 29.738 329.524,29.524 330.167,29.524 330.952 C 29.524 331.738,29.310 332.381,29.048 332.381 C 28.786 332.381,28.571 333.024,28.571 333.810 C 28.571 334.595,28.357 335.238,28.095 335.238 C 27.833 335.238,27.619 335.667,27.619 336.190 C 27.619 336.714,27.405 337.143,27.143 337.143 C 26.881 337.143,26.667 337.786,26.667 338.571 C 26.667 339.357,26.452 340.000,26.190 340.000 C 25.929 340.000,25.714 340.643,25.714 341.429 C 25.714 342.214,25.500 342.857,25.238 342.857 C 24.976 342.857,24.762 343.286,24.762 343.810 C 24.762 344.333,24.548 344.762,24.286 344.762 C 24.024 344.762,23.810 345.405,23.810 346.190 C 23.810 346.976,23.595 347.619,23.333 347.619 C 23.071 347.619,22.857 348.262,22.857 349.048 C 22.857 349.833,22.643 350.476,22.381 350.476 C 22.119 350.476,21.905 350.905,21.905 351.429 C 21.905 351.952,21.690 352.381,21.429 352.381 C 21.167 352.381,20.952 353.024,20.952 353.810 C 20.952 354.595,20.738 355.238,20.476 355.238 C 20.214 355.238,20.000 355.881,20.000 356.667 C 20.000 357.452,19.786 358.095,19.524 358.095 C 19.262 358.095,19.048 358.524,19.048 359.048 C 19.048 359.571,18.833 360.000,18.571 360.000 C 18.310 360.000,18.095 360.643,18.095 361.429 C 18.095 362.214,17.881 362.857,17.619 362.857 C 17.357 362.857,17.143 363.286,17.143 363.810 C 17.143 364.333,16.929 364.762,16.667 364.762 C 16.405 364.762,16.190 365.405,16.190 366.190 C 16.190 366.976,15.976 367.619,15.714 367.619 C 15.452 367.619,15.238 368.262,15.238 369.048 C 15.238 369.833,15.024 370.476,14.762 370.476 C 14.500 370.476,14.286 370.905,14.286 371.429 C 14.286 371.952,14.071 372.381,13.810 372.381 C 13.548 372.381,13.333 373.024,13.333 373.810 C 13.333 374.595,13.119 375.238,12.857 375.238 C 12.595 375.238,12.381 375.881,12.381 376.667 C 12.381 377.452,12.167 378.095,11.905 378.095 C 11.643 378.095,11.429 378.524,11.429 379.048 C 11.429 379.571,11.214 380.000,10.952 380.000 C 10.690 380.000,10.476 380.643,10.476 381.429 C 10.476 382.214,10.262 382.857,10.000 382.857 C 9.738 382.857,9.524 383.500,9.524 384.286 C 9.524 385.071,9.310 385.714,9.048 385.714 C 8.786 385.714,8.571 386.143,8.571 386.667 C 8.571 387.190,8.357 387.619,8.095 387.619 C 7.833 387.619,7.619 388.262,7.619 389.048 C 7.619 389.833,7.405 390.476,7.143 390.476 C 6.881 390.476,6.667 391.119,6.667 391.905 C 6.667 392.690,6.452 393.333,6.190 393.333 C 5.929 393.333,5.714 393.762,5.714 394.286 C 5.714 394.810,5.500 395.238,5.238 395.238 C 4.976 395.238,4.762 395.881,4.762 396.667 C 4.762 397.452,4.548 398.095,4.286 398.095 C 4.024 398.095,3.810 398.524,3.810 399.048 C 3.810 399.571,3.595 400.000,3.333 400.000 C 3.071 400.000,2.857 400.643,2.857 401.429 C 2.857 402.214,2.643 402.857,2.381 402.857 C 2.119 402.857,1.905 403.500,1.905 404.286 C 1.905 405.071,1.690 405.714,1.429 405.714 C 1.167 405.714,0.952 406.143,0.952 406.667 C 0.952 407.190,0.738 407.619,0.476 407.619 C 0.214 407.619,0.000 407.833,0.000 408.095 C 0.000 408.409,15.329 408.571,45.034 408.571 C 92.825 408.571,91.429 408.635,91.429 406.463 C 91.429 406.051,91.643 405.714,91.905 405.714 C 92.167 405.714,92.381 405.071,92.381 404.286 C 92.381 403.500,92.595 402.857,92.857 402.857 C 93.119 402.857,93.333 402.214,93.333 401.429 C 93.333 400.643,93.548 400.000,93.810 400.000 C 94.071 400.000,94.286 399.357,94.286 398.571 C 94.286 397.786,94.500 397.143,94.762 397.143 C 95.024 397.143,95.238 396.500,95.238 395.714 C 95.238 394.929,95.452 394.286,95.714 394.286 C 95.976 394.286,96.190 393.643,96.190 392.857 C 96.190 392.071,96.405 391.429,96.667 391.429 C 96.929 391.429,97.143 391.000,97.143 390.476 C 97.143 389.952,97.357 389.524,97.619 389.524 C 97.881 389.524,98.095 388.881,98.095 388.095 C 98.095 387.310,98.310 386.667,98.571 386.667 C 98.833 386.667,99.048 386.024,99.048 385.238 C 99.048 384.452,99.262 383.810,99.524 383.810 C 99.786 383.810,100.000 383.167,100.000 382.381 C 100.000 381.595,100.214 380.952,100.476 380.952 C 100.738 380.952,100.952 380.310,100.952 379.524 C 100.952 378.738,101.167 378.095,101.429 378.095 C 101.690 378.095,101.905 377.452,101.905 376.667 C 101.905 375.881,102.119 375.238,102.381 375.238 C 102.643 375.238,102.857 374.810,102.857 374.286 C 102.857 373.762,103.071 373.333,103.333 373.333 C 103.595 373.333,103.810 372.690,103.810 371.905 C 103.810 371.119,104.024 370.476,104.286 370.476 C 104.548 370.476,104.762 369.833,104.762 369.048 C 104.762 368.262,104.976 367.619,105.238 367.619 C 105.500 367.619,105.714 366.976,105.714 366.190 C 105.714 365.405,105.929 364.762,106.190 364.762 C 106.452 364.762,106.667 364.119,106.667 363.333 C 106.667 362.548,106.881 361.905,107.143 361.905 C 107.405 361.905,107.619 361.262,107.619 360.476 C 107.619 359.690,107.833 359.048,108.095 359.048 C 108.357 359.048,108.571 358.619,108.571 358.095 C 108.571 357.571,108.786 357.143,109.048 357.143 C 109.310 357.143,109.524 356.500,109.524 355.714 C 109.524 354.929,109.738 354.286,110.000 354.286 C 110.262 354.286,110.476 353.643,110.476 352.857 C 110.476 352.071,110.690 351.429,110.952 351.429 C 111.214 351.429,111.429 350.786,111.429 350.000 C 111.429 349.214,111.643 348.571,111.905 348.571 C 112.167 348.571,112.381 347.929,112.381 347.143 C 112.381 346.357,112.595 345.714,112.857 345.714 C 113.119 345.714,113.333 345.071,113.333 344.286 C 113.333 343.500,113.548 342.857,113.810 342.857 C 114.071 342.857,114.286 342.429,114.286 341.905 C 114.286 341.381,114.500 340.952,114.762 340.952 C 115.024 340.952,115.238 340.310,115.238 339.524 C 115.238 338.738,115.452 338.095,115.714 338.095 C 115.976 338.095,116.190 337.452,116.190 336.667 C 116.190 335.881,116.405 335.238,116.667 335.238 C 116.929 335.238,117.143 334.595,117.143 333.810 C 117.143 333.024,117.357 332.381,117.619 332.381 C 117.881 332.381,118.095 331.738,118.095 330.952 C 118.095 330.167,118.310 329.524,118.571 329.524 C 118.833 329.524,119.048 328.881,119.048 328.095 C 119.048 327.310,119.262 326.667,119.524 326.667 C 119.786 326.667,120.000 326.238,120.000 325.714 C 120.000 325.190,120.214 324.762,120.476 324.762 C 120.738 324.762,120.952 324.119,120.952 323.333 C 120.952 322.548,121.167 321.905,121.429 321.905 C 121.690 321.905,121.905 321.354,121.905 320.680 C 121.905 317.919,116.625 318.095,199.252 318.095 L 275.238 318.095 275.238 319.524 C 275.238 320.310,275.452 320.952,275.714 320.952 C 275.976 320.952,276.190 321.595,276.190 322.381 C 276.190 323.167,276.405 323.810,276.667 323.810 C 276.929 323.810,277.143 324.238,277.143 324.762 C 277.143 325.286,277.357 325.714,277.619 325.714 C 277.881 325.714,278.095 326.357,278.095 327.143 C 278.095 327.929,278.310 328.571,278.571 328.571 C 278.833 328.571,279.048 329.214,279.048 330.000 C 279.048 330.786,279.262 331.429,279.524 331.429 C 279.786 331.429,280.000 332.071,280.000 332.857 C 280.000 333.643,280.214 334.286,280.476 334.286 C 280.738 334.286,280.952 334.929,280.952 335.714 C 280.952 336.500,281.167 337.143,281.429 337.143 C 281.690 337.143,281.905 337.786,281.905 338.571 C 281.905 339.357,282.119 340.000,282.381 340.000 C 282.643 340.000,282.857 340.643,282.857 341.429 C 282.857 342.214,283.071 342.857,283.333 342.857 C 283.595 342.857,283.810 343.500,283.810 344.286 C 283.810 345.071,284.024 345.714,284.286 345.714 C 284.548 345.714,284.762 346.357,284.762 347.143 C 284.762 347.929,284.976 348.571,285.238 348.571 C 285.500 348.571,285.714 349.214,285.714 350.000 C 285.714 350.786,285.929 351.429,286.190 351.429 C 286.452 351.429,286.667 352.071,286.667 352.857 C 286.667 353.643,286.881 354.286,287.143 354.286 C 287.405 354.286,287.619 354.714,287.619 355.238 C 287.619 355.762,287.833 356.190,288.095 356.190 C 288.357 356.190,288.571 356.833,288.571 357.619 C 288.571 358.405,288.786 359.048,289.048 359.048 C 289.310 359.048,289.524 359.690,289.524 360.476 C 289.524 361.262,289.738 361.905,290.000 361.905 C 290.262 361.905,290.476 362.548,290.476 363.333 C 290.476 364.119,290.690 364.762,290.952 364.762 C 291.214 364.762,291.429 365.405,291.429 366.190 C 291.429 366.976,291.643 367.619,291.905 367.619 C 292.167 367.619,292.381 368.262,292.381 369.048 C 292.381 369.833,292.595 370.476,292.857 370.476 C 293.119 370.476,293.333 371.119,293.333 371.905 C 293.333 372.690,293.548 373.333,293.810 373.333 C 294.071 373.333,294.286 373.976,294.286 374.762 C 294.286 375.548,294.500 376.190,294.762 376.190 C 295.024 376.190,295.238 376.833,295.238 377.619 C 295.238 378.405,295.452 379.048,295.714 379.048 C 295.976 379.048,296.190 379.690,296.190 380.476 C 296.190 381.262,296.405 381.905,296.667 381.905 C 296.929 381.905,297.143 382.548,297.143 383.333 C 297.143 384.119,297.357 384.762,297.619 384.762 C 297.881 384.762,298.095 385.190,298.095 385.714 C 298.095 386.238,298.310 386.667,298.571 386.667 C 298.833 386.667,299.048 387.310,299.048 388.095 C 299.048 388.881,299.262 389.524,299.524 389.524 C 299.786 389.524,300.000 390.167,300.000 390.952 C 300.000 391.738,300.214 392.381,300.476 392.381 C 300.738 392.381,300.952 393.024,300.952 393.810 C 300.952 394.595,301.167 395.238,301.429 395.238 C 301.690 395.238,301.905 395.881,301.905 396.667 C 301.905 397.452,302.119 398.095,302.381 398.095 C 302.643 398.095,302.857 398.738,302.857 399.524 C 302.857 400.310,303.071 400.952,303.333 400.952 C 303.595 400.952,303.810 401.595,303.810 402.381 C 303.810 403.167,304.024 403.810,304.286 403.810 C 304.548 403.810,304.762 404.452,304.762 405.238 C 304.762 406.024,304.976 406.667,305.238 406.667 C 305.500 406.667,305.714 407.095,305.714 407.619 C 305.714 408.565,306.032 408.571,352.381 408.571 C 398.730 408.571,399.048 408.565,399.048 407.619 C 399.048 407.095,398.833 406.667,398.571 406.667 C 398.310 406.667,398.095 406.024,398.095 405.238 C 398.095 404.452,397.881 403.810,397.619 403.810 C 397.357 403.810,397.143 403.167,397.143 402.381 C 397.143 401.595,396.929 400.952,396.667 400.952 C 396.405 400.952,396.190 400.524,396.190 400.000 C 396.190 399.476,395.976 399.048,395.714 399.048 C 395.452 399.048,395.238 398.405,395.238 397.619 C 395.238 396.833,395.024 396.190,394.762 396.190 C 394.500 396.190,394.286 395.548,394.286 394.762 C 394.286 393.976,394.071 393.333,393.810 393.333 C 393.548 393.333,393.333 392.905,393.333 392.381 C 393.333 391.857,393.119 391.429,392.857 391.429 C 392.595 391.429,392.381 390.786,392.381 390.000 C 392.381 389.214,392.167 388.571,391.905 388.571 C 391.643 388.571,391.429 387.929,391.429 387.143 C 391.429 386.357,391.214 385.714,390.952 385.714 C 390.690 385.714,390.476 385.286,390.476 384.762 C 390.476 384.238,390.262 383.810,390.000 383.810 C 389.738 383.810,389.524 383.167,389.524 382.381 C 389.524 381.595,389.310 380.952,389.048 380.952 C 388.786 380.952,388.571 380.310,388.571 379.524 C 388.571 378.738,388.357 378.095,388.095 378.095 C 387.833 378.095,387.619 377.667,387.619 377.143 C 387.619 376.619,387.405 376.190,387.143 376.190 C 386.881 376.190,386.667 375.548,386.667 374.762 C 386.667 373.976,386.452 373.333,386.190 373.333 C 385.929 373.333,385.714 372.690,385.714 371.905 C 385.714 371.119,385.500 370.476,385.238 370.476 C 384.976 370.476,384.762 370.048,384.762 369.524 C 384.762 369.000,384.548 368.571,384.286 368.571 C 384.024 368.571,383.810 367.929,383.810 367.143 C 383.810 366.357,383.595 365.714,383.333 365.714 C 383.071 365.714,382.857 365.071,382.857 364.286 C 382.857 363.500,382.643 362.857,382.381 362.857 C 382.119 362.857,381.905 362.429,381.905 361.905 C 381.905 361.381,381.690 360.952,381.429 360.952 C 381.167 360.952,380.952 360.310,380.952 359.524 C 380.952 358.738,380.738 358.095,380.476 358.095 C 380.214 358.095,380.000 357.452,380.000 356.667 C 380.000 355.881,379.786 355.238,379.524 355.238 C 379.262 355.238,379.048 354.595,379.048 353.810 C 379.048 353.024,378.833 352.381,378.571 352.381 C 378.310 352.381,378.095 351.952,378.095 351.429 C 378.095 350.905,377.881 350.476,377.619 350.476 C 377.357 350.476,377.143 349.833,377.143 349.048 C 377.143 348.262,376.929 347.619,376.667 347.619 C 376.405 347.619,376.190 346.976,376.190 346.190 C 376.190 345.405,375.976 344.762,375.714 344.762 C 375.452 344.762,375.238 344.333,375.238 343.810 C 375.238 343.286,375.024 342.857,374.762 342.857 C 374.500 342.857,374.286 342.214,374.286 341.429 C 374.286 340.643,374.071 340.000,373.810 340.000 C 373.548 340.000,373.333 339.357,373.333 338.571 C 373.333 337.786,373.119 337.143,372.857 337.143 C 372.595 337.143,372.381 336.714,372.381 336.190 C 372.381 335.667,372.167 335.238,371.905 335.238 C 371.643 335.238,371.429 334.595,371.429 333.810 C 371.429 333.024,371.214 332.381,370.952 332.381 C 370.690 332.381,370.476 331.738,370.476 330.952 C 370.476 330.167,370.262 329.524,370.000 329.524 C 369.738 329.524,369.524 329.095,369.524 328.571 C 369.524 328.048,369.310 327.619,369.048 327.619 C 368.786 327.619,368.571 326.976,368.571 326.190 C 368.571 325.405,368.357 324.762,368.095 324.762 C 367.833 324.762,367.619 324.119,367.619 323.333 C 367.619 322.548,367.405 321.905,367.143 321.905 C 366.881 321.905,366.667 321.476,366.667 320.952 C 366.667 320.429,366.452 320.000,366.190 320.000 C 365.929 320.000,365.714 319.357,365.714 318.571 C 365.714 317.786,365.500 317.143,365.238 317.143 C 364.976 317.143,364.762 316.500,364.762 315.714 C 364.762 314.929,364.548 314.286,364.286 314.286 C 364.024 314.286,363.810 313.857,363.810 313.333 C 363.810 312.810,363.595 312.381,363.333 312.381 C 363.071 312.381,362.857 311.738,362.857 310.952 C 362.857 310.167,362.643 309.524,362.381 309.524 C 362.119 309.524,361.905 308.881,361.905 308.095 C 361.905 307.310,361.690 306.667,361.429 306.667 C 361.167 306.667,360.952 306.238,360.952 305.714 C 360.952 305.190,360.738 304.762,360.476 304.762 C 360.214 304.762,360.000 304.119,360.000 303.333 C 360.000 302.548,359.786 301.905,359.524 301.905 C 359.262 301.905,359.048 301.262,359.048 300.476 C 359.048 299.690,358.833 299.048,358.571 299.048 C 358.310 299.048,358.095 298.619,358.095 298.095 C 358.095 297.571,357.881 297.143,357.619 297.143 C 357.357 297.143,357.143 296.500,357.143 295.714 C 357.143 294.929,356.929 294.286,356.667 294.286 C 356.405 294.286,356.190 293.643,356.190 292.857 C 356.190 292.071,355.976 291.429,355.714 291.429 C 355.452 291.429,355.238 291.000,355.238 290.476 C 355.238 289.952,355.024 289.524,354.762 289.524 C 354.500 289.524,354.286 288.881,354.286 288.095 C 354.286 287.310,354.071 286.667,353.810 286.667 C 353.548 286.667,353.333 286.024,353.333 285.238 C 353.333 284.452,353.119 283.810,352.857 283.810 C 352.595 283.810,352.381 283.381,352.381 282.857 C 352.381 282.333,352.167 281.905,351.905 281.905 C 351.643 281.905,351.429 281.262,351.429 280.476 C 351.429 279.690,351.214 279.048,350.952 279.048 C 350.690 279.048,350.476 278.405,350.476 277.619 C 350.476 276.833,350.262 276.190,350.000 276.190 C 349.738 276.190,349.524 275.762,349.524 275.238 C 349.524 274.714,349.310 274.286,349.048 274.286 C 348.786 274.286,348.571 273.643,348.571 272.857 C 348.571 272.071,348.357 271.429,348.095 271.429 C 347.833 271.429,347.619 270.786,347.619 270.000 C 347.619 269.214,347.405 268.571,347.143 268.571 C 346.881 268.571,346.667 268.143,346.667 267.619 C 346.667 267.095,346.452 266.667,346.190 266.667 C 345.929 266.667,345.714 266.024,345.714 265.238 C 345.714 264.452,345.500 263.810,345.238 263.810 C 344.976 263.810,344.762 263.167,344.762 262.381 C 344.762 261.595,344.548 260.952,344.286 260.952 C 344.024 260.952,343.810 260.524,343.810 260.000 C 343.810 259.476,343.595 259.048,343.333 259.048 C 343.071 259.048,342.857 258.405,342.857 257.619 C 342.857 256.833,342.643 256.190,342.381 256.190 C 342.119 256.190,341.905 255.548,341.905 254.762 C 341.905 253.976,341.690 253.333,341.429 253.333 C 341.167 253.333,340.952 252.905,340.952 252.381 C 340.952 251.857,340.738 251.429,340.476 251.429 C 340.214 251.429,340.000 250.786,340.000 250.000 C 340.000 249.214,339.786 248.571,339.524 248.571 C 339.262 248.571,339.048 247.929,339.048 247.143 C 339.048 246.357,338.833 245.714,338.571 245.714 C 338.310 245.714,338.095 245.286,338.095 244.762 C 338.095 244.238,337.881 243.810,337.619 243.810 C 337.357 243.810,337.143 243.167,337.143 242.381 C 337.143 241.595,336.929 240.952,336.667 240.952 C 336.405 240.952,336.190 240.310,336.190 239.524 C 336.190 238.738,335.976 238.095,335.714 238.095 C 335.452 238.095,335.238 237.667,335.238 237.143 C 335.238 236.619,335.024 236.190,334.762 236.190 C 334.500 236.190,334.286 235.548,334.286 234.762 C 334.286 233.976,334.071 233.333,333.810 233.333 C 333.548 233.333,333.333 232.690,333.333 231.905 C 333.333 231.119,333.119 230.476,332.857 230.476 C 332.595 230.476,332.381 230.048,332.381 229.524 C 332.381 229.000,332.167 228.571,331.905 228.571 C 331.643 228.571,331.429 227.929,331.429 227.143 C 331.429 226.357,331.214 225.714,330.952 225.714 C 330.690 225.714,330.476 225.071,330.476 224.286 C 330.476 223.500,330.262 222.857,330.000 222.857 C 329.738 222.857,329.524 222.429,329.524 221.905 C 329.524 221.381,329.310 220.952,329.048 220.952 C 328.786 220.952,328.571 220.310,328.571 219.524 C 328.571 218.738,328.357 218.095,328.095 218.095 C 327.833 218.095,327.619 217.452,327.619 216.667 C 327.619 215.881,327.405 215.238,327.143 215.238 C 326.881 215.238,326.667 214.810,326.667 214.286 C 326.667 213.762,326.452 213.333,326.190 213.333 C 325.929 213.333,325.714 212.690,325.714 211.905 C 325.714 211.119,325.500 210.476,325.238 210.476 C 324.976 210.476,324.762 209.833,324.762 209.048 C 324.762 208.262,324.548 207.619,324.286 207.619 C 324.024 207.619,323.810 207.190,323.810 206.667 C 323.810 206.143,323.595 205.714,323.333 205.714 C 323.071 205.714,322.857 205.071,322.857 204.286 C 322.857 203.500,322.643 202.857,322.381 202.857 C 322.119 202.857,321.905 202.214,321.905 201.429 C 321.905 200.643,321.690 200.000,321.429 200.000 C 321.167 200.000,320.952 199.357,320.952 198.571 C 320.952 197.786,320.738 197.143,320.476 197.143 C 320.214 197.143,320.000 196.714,320.000 196.190 C 320.000 195.667,319.786 195.238,319.524 195.238 C 319.262 195.238,319.048 194.595,319.048 193.810 C 319.048 193.024,318.833 192.381,318.571 192.381 C 318.310 192.381,318.095 191.738,318.095 190.952 C 318.095 190.167,317.881 189.524,317.619 189.524 C 317.357 189.524,317.143 189.095,317.143 188.571 C 317.143 188.048,316.929 187.619,316.667 187.619 C 316.405 187.619,316.190 186.976,316.190 186.190 C 316.190 185.405,315.976 184.762,315.714 184.762 C 315.452 184.762,315.238 184.119,315.238 183.333 C 315.238 182.548,315.024 181.905,314.762 181.905 C 314.500 181.905,314.286 181.476,314.286 180.952 C 314.286 180.429,314.071 180.000,313.810 180.000 C 313.548 180.000,313.333 179.357,313.333 178.571 C 313.333 177.786,313.119 177.143,312.857 177.143 C 312.595 177.143,312.381 176.500,312.381 175.714 C 312.381 174.929,312.167 174.286,311.905 174.286 C 311.643 174.286,311.429 173.857,311.429 173.333 C 311.429 172.810,311.214 172.381,310.952 172.381 C 310.690 172.381,310.476 171.738,310.476 170.952 C 310.476 170.167,310.262 169.524,310.000 169.524 C 309.738 169.524,309.524 168.881,309.524 168.095 C 309.524 167.310,309.310 166.667,309.048 166.667 C 308.786 166.667,308.571 166.238,308.571 165.714 C 308.571 165.190,308.357 164.762,308.095 164.762 C 307.833 164.762,307.619 164.119,307.619 163.333 C 307.619 162.548,307.405 161.905,307.143 161.905 C 306.881 161.905,306.667 161.262,306.667 160.476 C 306.667 159.690,306.452 159.048,306.190 159.048 C 305.929 159.048,305.714 158.619,305.714 158.095 C 305.714 157.571,305.500 157.143,305.238 157.143 C 304.976 157.143,304.762 156.500,304.762 155.714 C 304.762 154.929,304.548 154.286,304.286 154.286 C 304.024 154.286,303.810 153.643,303.810 152.857 C 303.810 152.071,303.595 151.429,303.333 151.429 C 303.071 151.429,302.857 151.000,302.857 150.476 C 302.857 149.952,302.643 149.524,302.381 149.524 C 302.119 149.524,301.905 148.881,301.905 148.095 C 301.905 147.310,301.690 146.667,301.429 146.667 C 301.167 146.667,300.952 146.024,300.952 145.238 C 300.952 144.452,300.738 143.810,300.476 143.810 C 300.214 143.810,300.000 143.381,300.000 142.857 C 300.000 142.333,299.786 141.905,299.524 141.905 C 299.262 141.905,299.048 141.262,299.048 140.476 C 299.048 139.690,298.833 139.048,298.571 139.048 C 298.310 139.048,298.095 138.405,298.095 137.619 C 298.095 136.833,297.881 136.190,297.619 136.190 C 297.357 136.190,297.143 135.762,297.143 135.238 C 297.143 134.714,296.929 134.286,296.667 134.286 C 296.405 134.286,296.190 133.643,296.190 132.857 C 296.190 132.071,295.976 131.429,295.714 131.429 C 295.452 131.429,295.238 130.786,295.238 130.000 C 295.238 129.214,295.024 128.571,294.762 128.571 C 294.500 128.571,294.286 128.143,294.286 127.619 C 294.286 127.095,294.071 126.667,293.810 126.667 C 293.548 126.667,293.333 126.024,293.333 125.238 C 293.333 124.452,293.119 123.810,292.857 123.810 C 292.595 123.810,292.381 123.167,292.381 122.381 C 292.381 121.595,292.167 120.952,291.905 120.952 C 291.643 120.952,291.429 120.524,291.429 120.000 C 291.429 119.476,291.214 119.048,290.952 119.048 C 290.690 119.048,290.476 118.405,290.476 117.619 C 290.476 116.833,290.262 116.190,290.000 116.190 C 289.738 116.190,289.524 115.548,289.524 114.762 C 289.524 113.976,289.310 113.333,289.048 113.333 C 288.786 113.333,288.571 112.905,288.571 112.381 C 288.571 111.857,288.357 111.429,288.095 111.429 C 287.833 111.429,287.619 110.786,287.619 110.000 C 287.619 109.214,287.405 108.571,287.143 108.571 C 286.881 108.571,286.667 107.929,286.667 107.143 C 286.667 106.357,286.452 105.714,286.190 105.714 C 285.929 105.714,285.714 105.286,285.714 104.762 C 285.714 104.238,285.500 103.810,285.238 103.810 C 284.976 103.810,284.762 103.167,284.762 102.381 C 284.762 101.595,284.548 100.952,284.286 100.952 C 284.024 100.952,283.810 100.310,283.810 99.524 C 283.810 98.738,283.595 98.095,283.333 98.095 C 283.071 98.095,282.857 97.667,282.857 97.143 C 282.857 96.619,282.643 96.190,282.381 96.190 C 282.119 96.190,281.905 95.548,281.905 94.762 C 281.905 93.976,281.690 93.333,281.429 93.333 C 281.167 93.333,280.952 92.690,280.952 91.905 C 280.952 91.119,280.738 90.476,280.476 90.476 C 280.214 90.476,280.000 90.048,280.000 89.524 C 280.000 89.000,279.786 88.571,279.524 88.571 C 279.262 88.571,279.048 87.929,279.048 87.143 C 279.048 86.357,278.833 85.714,278.571 85.714 C 278.310 85.714,278.095 85.071,278.095 84.286 C 278.095 83.500,277.881 82.857,277.619 82.857 C 277.357 82.857,277.143 82.429,277.143 81.905 C 277.143 81.381,276.929 80.952,276.667 80.952 C 276.405 80.952,276.190 80.310,276.190 79.524 C 276.190 78.738,275.976 78.095,275.714 78.095 C 275.452 78.095,275.238 77.452,275.238 76.667 C 275.238 75.881,275.024 75.238,274.762 75.238 C 274.500 75.238,274.286 74.810,274.286 74.286 C 274.286 73.762,274.071 73.333,273.810 73.333 C 273.548 73.333,273.333 72.690,273.333 71.905 C 273.333 71.119,273.119 70.476,272.857 70.476 C 272.595 70.476,272.381 69.833,272.381 69.048 C 272.381 68.262,272.167 67.619,271.905 67.619 C 271.643 67.619,271.429 67.190,271.429 66.667 C 271.429 66.143,271.214 65.714,270.952 65.714 C 270.690 65.714,270.476 65.071,270.476 64.286 C 270.476 63.500,270.262 62.857,270.000 62.857 C 269.738 62.857,269.524 62.214,269.524 61.429 C 269.524 60.643,269.310 60.000,269.048 60.000 C 268.786 60.000,268.571 59.571,268.571 59.048 C 268.571 58.524,268.357 58.095,268.095 58.095 C 267.833 58.095,267.619 57.452,267.619 56.667 C 267.619 55.881,267.405 55.238,267.143 55.238 C 266.881 55.238,266.667 54.595,266.667 53.810 C 266.667 53.024,266.452 52.381,266.190 52.381 C 265.929 52.381,265.714 51.738,265.714 50.952 C 265.714 50.167,265.500 49.524,265.238 49.524 C 264.976 49.524,264.762 49.095,264.762 48.571 C 264.762 48.048,264.548 47.619,264.286 47.619 C 264.024 47.619,263.810 46.976,263.810 46.190 C 263.810 45.405,263.595 44.762,263.333 44.762 C 263.071 44.762,262.857 44.119,262.857 43.333 C 262.857 42.548,262.643 41.905,262.381 41.905 C 262.119 41.905,261.905 41.476,261.905 40.952 C 261.905 40.429,261.690 40.000,261.429 40.000 C 261.167 40.000,260.952 39.357,260.952 38.571 C 260.952 37.786,260.738 37.143,260.476 37.143 C 260.214 37.143,260.000 36.500,260.000 35.714 C 260.000 34.929,259.786 34.286,259.524 34.286 C 259.262 34.286,259.048 33.857,259.048 33.333 C 259.048 32.810,258.833 32.381,258.571 32.381 C 258.310 32.381,258.095 31.738,258.095 30.952 C 258.095 30.167,257.881 29.524,257.619 29.524 C 257.357 29.524,257.143 28.881,257.143 28.095 C 257.143 27.310,256.929 26.667,256.667 26.667 C 256.405 26.667,256.190 26.238,256.190 25.714 C 256.190 25.190,255.976 24.762,255.714 24.762 C 255.452 24.762,255.238 24.119,255.238 23.333 C 255.238 22.548,255.024 21.905,254.762 21.905 C 254.500 21.905,254.286 21.262,254.286 20.476 C 254.286 19.690,254.071 19.048,253.810 19.048 C 253.548 19.048,253.333 18.619,253.333 18.095 C 253.333 17.571,253.119 17.143,252.857 17.143 C 252.595 17.143,252.381 16.500,252.381 15.714 C 252.381 14.929,252.167 14.286,251.905 14.286 C 251.643 14.286,251.429 13.643,251.429 12.857 C 251.429 12.071,251.214 11.429,250.952 11.429 C 250.690 11.429,250.476 11.000,250.476 10.476 C 250.476 9.952,250.262 9.524,250.000 9.524 C 249.738 9.524,249.524 8.881,249.524 8.095 C 249.524 7.310,249.310 6.667,249.048 6.667 C 248.786 6.667,248.571 6.024,248.571 5.238 C 248.571 4.452,248.357 3.810,248.095 3.810 C 247.833 3.810,247.619 3.381,247.619 2.857 C 247.619 2.333,247.405 1.905,247.143 1.905 C 246.881 1.905,246.667 1.476,246.667 0.952 C 246.667 -0.309,155.989 -0.546,154.881 0.712 M200.272 101.633 C 200.646 102.007,200.952 102.650,200.952 103.061 C 200.952 103.473,201.167 103.810,201.429 103.810 C 201.690 103.810,201.905 104.452,201.905 105.238 C 201.905 106.024,202.119 106.667,202.381 106.667 C 202.643 106.667,202.857 107.310,202.857 108.095 C 202.857 108.881,203.071 109.524,203.333 109.524 C 203.595 109.524,203.810 110.167,203.810 110.952 C 203.810 111.738,204.024 112.381,204.286 112.381 C 204.548 112.381,204.762 113.024,204.762 113.810 C 204.762 114.595,204.976 115.238,205.238 115.238 C 205.500 115.238,205.714 115.881,205.714 116.667 C 205.714 117.452,205.929 118.095,206.190 118.095 C 206.452 118.095,206.667 118.738,206.667 119.524 C 206.667 120.310,206.881 120.952,207.143 120.952 C 207.405 120.952,207.619 121.595,207.619 122.381 C 207.619 123.167,207.833 123.810,208.095 123.810 C 208.357 123.810,208.571 124.452,208.571 125.238 C 208.571 126.024,208.786 126.667,209.048 126.667 C 209.310 126.667,209.524 127.310,209.524 128.095 C 209.524 128.881,209.738 129.524,210.000 129.524 C 210.262 129.524,210.476 130.167,210.476 130.952 C 210.476 131.738,210.690 132.381,210.952 132.381 C 211.214 132.381,211.429 132.810,211.429 133.333 C 211.429 133.857,211.643 134.286,211.905 134.286 C 212.167 134.286,212.381 134.929,212.381 135.714 C 212.381 136.500,212.595 137.143,212.857 137.143 C 213.119 137.143,213.333 137.786,213.333 138.571 C 213.333 139.357,213.548 140.000,213.810 140.000 C 214.071 140.000,214.286 140.643,214.286 141.429 C 214.286 142.214,214.500 142.857,214.762 142.857 C 215.024 142.857,215.238 143.500,215.238 144.286 C 215.238 145.071,215.452 145.714,215.714 145.714 C 215.976 145.714,216.190 146.357,216.190 147.143 C 216.190 147.929,216.405 148.571,216.667 148.571 C 216.929 148.571,217.143 149.214,217.143 150.000 C 217.143 150.786,217.357 151.429,217.619 151.429 C 217.881 151.429,218.095 152.071,218.095 152.857 C 218.095 153.643,218.310 154.286,218.571 154.286 C 218.833 154.286,219.048 154.929,219.048 155.714 C 219.048 156.500,219.262 157.143,219.524 157.143 C 219.786 157.143,220.000 157.786,220.000 158.571 C 220.000 159.357,220.214 160.000,220.476 160.000 C 220.738 160.000,220.952 160.643,220.952 161.429 C 220.952 162.214,221.167 162.857,221.429 162.857 C 221.690 162.857,221.905 163.500,221.905 164.286 C 221.905 165.071,222.119 165.714,222.381 165.714 C 222.643 165.714,222.857 166.143,222.857 166.667 C 222.857 167.190,223.071 167.619,223.333 167.619 C 223.595 167.619,223.810 168.262,223.810 169.048 C 223.810 169.833,224.024 170.476,224.286 170.476 C 224.548 170.476,224.762 171.119,224.762 171.905 C 224.762 172.690,224.976 173.333,225.238 173.333 C 225.500 173.333,225.714 173.976,225.714 174.762 C 225.714 175.548,225.929 176.190,226.190 176.190 C 226.452 176.190,226.667 176.833,226.667 177.619 C 226.667 178.405,226.881 179.048,227.143 179.048 C 227.405 179.048,227.619 179.690,227.619 180.476 C 227.619 181.262,227.833 181.905,228.095 181.905 C 228.357 181.905,228.571 182.548,228.571 183.333 C 228.571 184.119,228.786 184.762,229.048 184.762 C 229.310 184.762,229.524 185.405,229.524 186.190 C 229.524 186.976,229.738 187.619,230.000 187.619 C 230.262 187.619,230.476 188.262,230.476 189.048 C 230.476 189.833,230.690 190.476,230.952 190.476 C 231.214 190.476,231.429 191.119,231.429 191.905 C 231.429 192.690,231.643 193.333,231.905 193.333 C 232.167 193.333,232.381 193.976,232.381 194.762 C 232.381 195.548,232.595 196.190,232.857 196.190 C 233.119 196.190,233.333 196.833,233.333 197.619 C 233.333 198.405,233.548 199.048,233.810 199.048 C 234.071 199.048,234.286 199.476,234.286 200.000 C 234.286 200.524,234.500 200.952,234.762 200.952 C 235.024 200.952,235.238 201.595,235.238 202.381 C 235.238 203.167,235.452 203.810,235.714 203.810 C 235.976 203.810,236.190 204.452,236.190 205.238 C 236.190 206.024,236.405 206.667,236.667 206.667 C 236.929 206.667,237.143 207.310,237.143 208.095 C 237.143 208.881,237.357 209.524,237.619 209.524 C 237.881 209.524,238.095 210.167,238.095 210.952 C 238.095 211.738,238.310 212.381,238.571 212.381 C 238.833 212.381,239.048 213.024,239.048 213.810 C 239.048 214.595,239.262 215.238,239.524 215.238 C 239.786 215.238,240.000 215.881,240.000 216.667 C 240.000 217.452,240.214 218.095,240.476 218.095 C 240.738 218.095,240.952 218.738,240.952 219.524 C 240.952 220.310,241.167 220.952,241.429 220.952 C 241.690 220.952,241.905 221.595,241.905 222.381 C 241.905 223.167,242.119 223.810,242.381 223.810 C 242.643 223.810,242.857 224.452,242.857 225.238 C 242.857 226.024,243.071 226.667,243.333 226.667 C 243.595 226.667,243.810 227.310,243.810 228.095 C 243.810 228.881,244.024 229.524,244.286 229.524 C 244.548 229.524,244.762 230.167,244.762 230.952 C 244.762 231.738,244.976 232.381,245.238 232.381 C 245.500 232.381,245.714 233.024,245.714 233.810 C 245.714 234.595,245.929 235.238,246.190 235.238 C 246.452 235.238,246.667 235.667,246.667 236.190 C 246.667 236.714,246.881 237.143,247.143 237.143 C 247.405 237.143,247.619 237.786,247.619 238.571 C 247.619 239.357,247.833 240.000,248.095 240.000 C 248.357 240.000,248.571 240.643,248.571 241.429 C 248.571 242.214,248.786 242.857,249.048 242.857 C 249.310 242.857,249.524 243.500,249.524 244.286 C 249.524 245.071,249.738 245.714,250.000 245.714 C 250.262 245.714,250.476 246.357,250.476 247.143 C 250.476 247.929,250.690 248.571,250.952 248.571 C 251.214 248.571,251.429 249.000,251.429 249.524 C 251.429 250.470,251.111 250.476,199.048 250.476 C 146.984 250.476,146.667 250.470,146.667 249.524 C 146.667 249.000,146.881 248.571,147.143 248.571 C 147.405 248.571,147.619 247.929,147.619 247.143 C 147.619 246.357,147.833 245.714,148.095 245.714 C 148.357 245.714,148.571 245.286,148.571 244.762 C 148.571 244.238,148.786 243.810,149.048 243.810 C 149.310 243.810,149.524 243.167,149.524 242.381 C 149.524 241.595,149.738 240.952,150.000 240.952 C 150.262 240.952,150.476 240.310,150.476 239.524 C 150.476 238.738,150.690 238.095,150.952 238.095 C 151.214 238.095,151.429 237.452,151.429 236.667 C 151.429 235.881,151.643 235.238,151.905 235.238 C 152.167 235.238,152.381 234.595,152.381 233.810 C 152.381 233.024,152.595 232.381,152.857 232.381 C 153.119 232.381,153.333 231.738,153.333 230.952 C 153.333 230.167,153.548 229.524,153.810 229.524 C 154.071 229.524,154.286 229.095,154.286 228.571 C 154.286 228.048,154.500 227.619,154.762 227.619 C 155.024 227.619,155.238 226.976,155.238 226.190 C 155.238 225.405,155.452 224.762,155.714 224.762 C 155.976 224.762,156.190 224.119,156.190 223.333 C 156.190 222.548,156.405 221.905,156.667 221.905 C 156.929 221.905,157.143 221.262,157.143 220.476 C 157.143 219.690,157.357 219.048,157.619 219.048 C 157.881 219.048,158.095 218.405,158.095 217.619 C 158.095 216.833,158.310 216.190,158.571 216.190 C 158.833 216.190,159.048 215.548,159.048 214.762 C 159.048 213.976,159.262 213.333,159.524 213.333 C 159.786 213.333,160.000 212.905,160.000 212.381 C 160.000 211.857,160.214 211.429,160.476 211.429 C 160.738 211.429,160.952 210.786,160.952 210.000 C 160.952 209.214,161.167 208.571,161.429 208.571 C 161.690 208.571,161.905 207.929,161.905 207.143 C 161.905 206.357,162.119 205.714,162.381 205.714 C 162.643 205.714,162.857 205.071,162.857 204.286 C 162.857 203.500,163.071 202.857,163.333 202.857 C 163.595 202.857,163.810 202.214,163.810 201.429 C 163.810 200.643,164.024 200.000,164.286 200.000 C 164.548 200.000,164.762 199.357,164.762 198.571 C 164.762 197.786,164.976 197.143,165.238 197.143 C 165.500 197.143,165.714 196.714,165.714 196.190 C 165.714 195.667,165.929 195.238,166.190 195.238 C 166.452 195.238,166.667 194.595,166.667 193.810 C 166.667 193.024,166.881 192.381,167.143 192.381 C 167.405 192.381,167.619 191.738,167.619 190.952 C 167.619 190.167,167.833 189.524,168.095 189.524 C 168.357 189.524,168.571 188.881,168.571 188.095 C 168.571 187.310,168.786 186.667,169.048 186.667 C 169.310 186.667,169.524 186.024,169.524 185.238 C 169.524 184.452,169.738 183.810,170.000 183.810 C 170.262 183.810,170.476 183.167,170.476 182.381 C 170.476 181.595,170.690 180.952,170.952 180.952 C 171.214 180.952,171.429 180.524,171.429 180.000 C 171.429 179.476,171.643 179.048,171.905 179.048 C 172.167 179.048,172.381 178.405,172.381 177.619 C 172.381 176.833,172.595 176.190,172.857 176.190 C 173.119 176.190,173.333 175.548,173.333 174.762 C 173.333 173.976,173.548 173.333,173.810 173.333 C 174.071 173.333,174.286 172.690,174.286 171.905 C 174.286 171.119,174.500 170.476,174.762 170.476 C 175.024 170.476,175.238 169.833,175.238 169.048 C 175.238 168.262,175.452 167.619,175.714 167.619 C 175.976 167.619,176.190 166.976,176.190 166.190 C 176.190 165.405,176.405 164.762,176.667 164.762 C 176.929 164.762,177.143 164.333,177.143 163.810 C 177.143 163.286,177.357 162.857,177.619 162.857 C 177.881 162.857,178.095 162.214,178.095 161.429 C 178.095 160.643,178.310 160.000,178.571 160.000 C 178.833 160.000,179.048 159.357,179.048 158.571 C 179.048 157.786,179.262 157.143,179.524 157.143 C 179.786 157.143,180.000 156.500,180.000 155.714 C 180.000 154.929,180.214 154.286,180.476 154.286 C 180.738 154.286,180.952 153.643,180.952 152.857 C 180.952 152.071,181.167 151.429,181.429 151.429 C 181.690 151.429,181.905 150.786,181.905 150.000 C 181.905 149.214,182.119 148.571,182.381 148.571 C 182.643 148.571,182.857 148.143,182.857 147.619 C 182.857 147.095,183.071 146.667,183.333 146.667 C 183.595 146.667,183.810 146.024,183.810 145.238 C 183.810 144.452,184.024 143.810,184.286 143.810 C 184.548 143.810,184.762 143.167,184.762 142.381 C 184.762 141.595,184.976 140.952,185.238 140.952 C 185.500 140.952,185.714 140.310,185.714 139.524 C 185.714 138.738,185.929 138.095,186.190 138.095 C 186.452 138.095,186.667 137.452,186.667 136.667 C 186.667 135.881,186.881 135.238,187.143 135.238 C 187.405 135.238,187.619 134.595,187.619 133.810 C 187.619 133.024,187.833 132.381,188.095 132.381 C 188.357 132.381,188.571 131.952,188.571 131.429 C 188.571 130.905,188.786 130.476,189.048 130.476 C 189.310 130.476,189.524 129.833,189.524 129.048 C 189.524 128.262,189.738 127.619,190.000 127.619 C 190.262 127.619,190.476 126.976,190.476 126.190 C 190.476 125.405,190.690 124.762,190.952 124.762 C 191.214 124.762,191.429 124.119,191.429 123.333 C 191.429 122.548,191.643 121.905,191.905 121.905 C 192.167 121.905,192.381 121.262,192.381 120.476 C 192.381 119.690,192.595 119.048,192.857 119.048 C 193.119 119.048,193.333 118.405,193.333 117.619 C 193.333 116.833,193.548 116.190,193.810 116.190 C 194.071 116.190,194.286 115.762,194.286 115.238 C 194.286 114.714,194.500 114.286,194.762 114.286 C 195.024 114.286,195.238 113.643,195.238 112.857 C 195.238 112.071,195.452 111.429,195.714 111.429 C 195.976 111.429,196.190 110.786,196.190 110.000 C 196.190 109.214,196.405 108.571,196.667 108.571 C 196.929 108.571,197.143 107.929,197.143 107.143 C 197.143 106.357,197.357 105.714,197.619 105.714 C 197.881 105.714,198.095 105.071,198.095 104.286 C 198.095 103.500,198.310 102.857,198.571 102.857 C 198.833 102.857,199.048 102.429,199.048 101.905 C 199.048 100.777,199.349 100.710,200.272 101.633 " stroke="none" fill="#000000" fill-rule="evenodd"></path></g></svg>