<svg id="svg" version="1.1" width="768" height="768" xmlns="http://www.w3.org/2000/svg" xmlns:xlink="http://www.w3.org/1999/xlink" ><g id="svgg"><path id="path0" d="M279.688 29.927 L 279.688 40.062 295.964 40.213 C 314.480 40.385,314.953 40.483,317.969 44.753 L 319.531 46.965 319.531 200.000 L 319.531 353.035 317.969 355.247 C 314.953 359.517,314.480 359.615,295.964 359.787 L 279.688 359.938 279.688 370.073 L 279.688 380.208 296.531 380.208 C 317.087 380.208,322.023 379.273,327.996 374.248 C 329.963 372.592,329.449 372.500,333.542 375.245 C 340.146 379.673,341.415 379.888,362.109 380.092 L 380.208 380.270 380.208 370.110 L 380.208 359.951 363.932 359.793 C 344.092 359.601,342.565 359.100,340.633 352.145 C 339.838 349.281,339.911 50.708,340.708 47.544 C 342.365 40.963,345.177 40.104,365.074 40.104 L 380.208 40.104 380.208 29.917 L 380.208 19.730 362.109 19.908 C 341.385 20.112,340.149 20.323,333.481 24.798 C 331.358 26.223,329.725 26.997,329.389 26.736 C 321.381 20.520,317.910 19.792,296.283 19.792 L 279.688 19.792 279.688 29.927 M79.688 149.782 C 46.888 177.136,19.993 199.684,19.921 199.889 C 19.790 200.265,139.211 300.000,139.793 300.000 C 139.964 300.000,140.104 282.070,140.104 260.156 L 140.104 220.313 210.156 220.313 L 280.208 220.313 280.208 200.000 L 280.208 179.688 210.156 179.688 L 140.104 179.688 140.104 139.844 C 140.104 117.930,139.928 100.011,139.714 100.024 C 139.499 100.037,112.487 122.428,79.688 149.782 " stroke="none" fill="#000000" fill-rule="evenodd"></path></g></svg>